# xmcd
#
# Track frame offsets: 
#        150
#        12336
#        27670
#        46371
#        66495
#        82640
#        90887
#        107350
#        117894
#        137365
#        152100
#
# Disc length: 2216 seconds
#
# Revision: 0
# Processed by: cddbd v1.5.2PL0 Copyright (c) Steve Scherf et al.
# Submitted via: ExactAudioCopyFreeDBPlugin 1.0
#
DISCID=7b08a60b
DTITLE=Pierre Omer - Do The Gypsy Thing
DYEAR=2010
DGENRE=Blues
TTITLE0=Black Cat Bone Blues
TTITLE1=Do The Gypsy Thing
TTITLE2=The End Of The Golden Age
TTITLE3=Tinckle Twinckle
TTITLE4=Willy Wolf
TTITLE5=Gold
TTITLE6=Haitian Drums
TTITLE7=Frog Legs And Sausage
TTITLE8=Shadazz
TTITLE9=Elisa
TTITLE10=Lullaby
EXTD=
EXTT0=
EXTT1=
EXTT2=
EXTT3=
EXTT4=
EXTT5=
EXTT6=
EXTT7=
EXTT8=
EXTT9=
EXTT10=
PLAYORDER=
